<svg width="38" height="38" viewBox="0 0 38 38" fill="none" xmlns="http://www.w3.org/2000/svg">
<rect opacity="0.45" width="38" height="38" rx="19" fill="white"/>
<g clip-path="url(#clip0_4995_3)">
<path fill-rule="evenodd" clip-rule="evenodd" d="M19 5C26.732 5 33 11.268 33 19C33 26.7318 26.732 33 19 33C11.268 33 5 26.7318 5 19C5 11.268 11.268 5 19 5ZM14.9549 20.1242C14.877 20.0741 14.8021 20.0164 14.7339 19.9482C14.4728 19.687 14.3471 19.3435 14.3533 19.0014C14.3474 18.6591 14.4733 18.3154 14.7343 18.0544C14.8022 17.9861 14.8771 17.9285 14.955 17.8784L20.186 12.6477C20.6965 12.1378 21.5242 12.1375 22.0347 12.648C22.5453 13.1584 22.5453 13.9859 22.0347 14.4968L17.53 19.0015L22.0575 23.5297C22.568 24.04 22.568 24.8679 22.0575 25.3784C21.8021 25.6338 21.4678 25.7613 21.1333 25.7613C20.7988 25.7613 20.4643 25.6338 20.2091 25.3784L14.9549 20.1242Z" fill="white"/>
<path d="M14.7339 19.9482C14.8021 20.0164 14.877 20.0741 14.9549 20.1242L20.2091 25.3784C20.4643 25.6338 20.7988 25.7613 21.1333 25.7613C21.4678 25.7613 21.8021 25.6338 22.0575 25.3784C22.568 24.8679 22.568 24.04 22.0575 23.5297L17.53 19.0015L22.0347 14.4968C22.5453 13.9859 22.5453 13.1584 22.0347 12.648C21.5242 12.1375 20.6965 12.1378 20.186 12.6477L14.955 17.8784C14.8771 17.9285 14.8022 17.9861 14.7343 18.0544C14.4733 18.3154 14.3474 18.6591 14.3533 19.0014C14.3471 19.3435 14.4728 19.687 14.7339 19.9482Z" fill="#D9FADD"/>
</g>
<defs>
<clipPath id="clip0_4995_3">
<rect width="28" height="28" fill="white" transform="matrix(-1 0 0 1 33 5)"/>
</clipPath>
</defs>
</svg>
